HIERARCHY
ROOT Hips
{
	OFFSET 0.000000 0.000000 0.000000
	CHANNELS 6 Xposition Yposition Zposition Zrotation Yrotation Xrotation 
	JOINT LHipJoint
	{
		OFFSET 0.000000 0.000000 0.000000
		CHANNELS 3 Zrotation Yrotation Xrotation
		JOINT LeftUpLeg
		{
			OFFSET 1.363060 -1.794630 0.839290
			CHANNELS 3 Zrotation Yrotation Xrotation
			JOINT LeftLeg
			{
				OFFSET 2.448110 -6.726130 0.000000
				CHANNELS 3 Zrotation Yrotation Xrotation
				JOINT LeftFoot
				{
					OFFSET 2.562200 -7.039590 0.000000
					CHANNELS 3 Zrotation Yrotation Xrotation
					JOINT LeftToeBase
					{
						OFFSET 0.157640 -0.433110 2.322550
						CHANNELS 3 Zrotation Yrotation Xrotation
						End Site
						{
							OFFSET 0.000000 0.000000 0.000000
						}
					}
				}
			}
		}
	}
	JOINT RHipJoint
	{
		OFFSET 0.000000 0.000000 0.000000
		CHANNELS 3 Zrotation Yrotation Xrotation
		JOINT RightUpLeg
		{
			OFFSET -1.305520 -1.794630 0.839290
			CHANNELS 3 Zrotation Yrotation Xrotation
			JOINT RightLeg
			{
				OFFSET -2.542530 -6.985550 0.000000
				CHANNELS 3 Zrotation Yrotation Xrotation
				JOINT RightFoot
				{
					OFFSET -2.568260 -7.056230 0.000000
					CHANNELS 3 Zrotation Yrotation Xrotation
					JOINT RightToeBase
					{
						OFFSET -0.164730 -0.452590 2.363150
						CHANNELS 3 Zrotation Yrotation Xrotation
						End Site
						{
							OFFSET 0.000000 0.000000 0.000000
						}
					}
				}
			}
		}
	}
}
MOTION
Frames: 30
Frame Time: 0.008333
11.044364 14.685451 0.888576 145.523171 -87.487226 -106.810617 -9.344291 -1.887536 1.812206 -14.935232 -8.081255 -82.753969 2.915984 5.815891 88.842874 4.115678 18.636358 -17.773101 -2.447200 -0.000000 -33.691700 9.190430 0.936040 4.032291 6.050809 11.338791 -65.848808 -0.439700 -4.333186 71.844605 -5.826623 -15.988210 -41.046769 9.071500 -0.000001 -46.498600
10.881805 14.758085 0.877493 143.911321 -87.411993 -105.277469 -9.288787 -1.789896 1.881775 -15.417768 -8.115691 -82.819542 2.918969 5.801820 88.676867 4.179171 19.035965 -17.194070 -2.289099 0.000000 -30.326700 9.245418 0.818055 4.075104 6.040036 11.026537 -64.443587 -0.297158 -4.188486 70.362481 -5.815038 -15.838727 -40.937416 8.988700 0.000000 -47.077400
10.717076 14.830758 0.868069 142.222818 -87.366992 -103.662661 -9.230168 -1.679588 1.971055 -15.860825 -8.172278 -82.882406 2.866338 5.785890 88.265653 4.211976 19.158477 -16.997948 -2.227500 -0.000000 -27.273200 9.293367 0.694644 4.104024 6.071974 10.676765 -63.007100 -0.150489 -4.038336 68.796720 -5.797622 -15.670197 -40.765353 8.880501 -0.000000 -47.733201
10.550114 14.903558 0.860755 140.522572 -87.358796 -102.033928 -9.173643 -1.558768 2.081527 -16.244959 -8.245670 -82.929902 2.756142 5.765869 87.577125 4.209149 18.982583 -17.149270 -2.253500 0.000000 -24.615501 9.328120 0.562806 4.116603 6.161811 10.297664 -61.520479 0.001602 -3.879622 67.128830 -5.776517 -15.490275 -40.532383 8.751900 -0.000001 -48.422100
10.381069 14.976582 0.855288 138.608734 -87.383176 -100.197197 -9.113358 -1.425288 2.211522 -16.576751 -8.345174 -82.936595 2.586022 5.736520 86.580468 4.168961 18.506645 -17.591631 -2.344400 0.000000 -22.332000 9.356152 0.426010 4.107828 6.299597 9.873713 -59.969409 0.160404 -3.712934 65.351072 -5.750186 -15.293095 -40.246511 8.603301 0.000000 -49.116000
10.209984 15.049733 0.851653 136.402065 -87.439287 -98.075571 -9.047748 -1.280381 2.361941 -16.848045 -8.475710 -82.889458 2.357117 5.693010 85.253077 4.091292 17.745821 -18.231573 -2.460400 -0.000000 -20.469200 9.378461 0.285648 4.075191 6.483041 9.403217 -58.342959 0.326297 -3.537106 63.456275 -5.718912 -15.080453 -39.913949 8.437900 -0.000000 -49.794101
10.036830 15.122896 0.849917 133.788387 -87.531893 -95.553867 -8.977250 -1.127479 2.538368 -17.039885 -8.645293 -82.790766 2.075637 5.630076 83.581053 3.978239 16.738392 -18.935725 -2.550300 0.000000 -19.199401 9.393150 0.141509 4.020511 6.713789 8.895156 -56.638548 0.498036 -3.350156 61.441058 -5.684686 -14.863000 -39.536453 8.261500 0.000000 -50.442100
9.861754 15.195737 0.849499 130.551276 -87.646516 -92.416451 -8.892914 -0.963905 2.737873 -17.167686 -8.864549 -82.625771 1.748852 5.541961 81.556356 3.836153 15.548938 -19.581412 -2.577600 0.000000 -18.622600 9.410410 0.000966 3.939899 6.968008 8.333137 -54.855963 0.675356 -3.153369 59.313540 -5.643467 -14.627198 -39.120669 8.070000 -0.000000 -51.074800
9.684724 15.267962 0.850395 126.493573 -87.783435 -88.461789 -8.794364 -0.790685 2.966348 -17.221599 -9.141554 -82.408583 1.390344 5.425078 79.186067 3.673326 14.259473 -20.038532 -2.516200 -0.000000 -18.894500 9.430164 -0.134604 3.837800 7.242556 7.727341 -53.005356 0.855698 -2.945067 57.080586 -5.595684 -14.379266 -38.662853 7.865599 0.000000 -51.701400
9.505720 15.339215 0.852247 121.423039 -87.929411 -83.493096 -8.678341 -0.604060 3.223878 -17.213983 -9.480593 -82.144261 1.013361 5.277842 76.486242 3.501274 12.964398 -20.220574 -2.366900 -0.000000 -20.030800 9.457504 -0.259897 3.715524 7.521229 7.076215 -51.097370 1.036721 -2.724677 54.755162 -5.537999 -14.111217 -38.157962 7.643700 0.000000 -52.349700
9.324792 15.409189 0.854827 115.196051 -88.069481 -77.363604 -8.544951 -0.398938 3.511017 -17.160463 -9.882357 -81.842259 0.629814 5.101632 73.484015 3.333118 11.754932 -20.092552 -2.149400 0.000000 -21.887500 9.494682 -0.370573 3.575337 7.791103 6.381156 -49.145275 1.215302 -2.491108 52.352776 -5.466857 -13.815280 -37.595290 7.398900 -0.000000 -53.048700
9.141821 15.477581 0.858045 107.845778 -88.186309 -70.099879 -8.399178 -0.170936 3.828301 -17.077655 -10.342387 -81.514991 0.247437 4.900336 70.214837 3.181526 10.702569 -19.675597 -1.892801 -0.000000 -24.178300 9.539291 -0.464706 3.420256 8.042464 5.647842 -47.165568 1.387700 -2.243097 49.889902 -5.378974 -13.485681 -36.958628 7.125600 -0.000000 -53.827900
8.956611 15.544103 0.861811 99.441492 -88.258424 -61.765336 -8.247902 0.084355 4.178784 -16.985599 -10.864148 -81.169301 -0.131269 4.677457 66.713699 3.056962 9.851094 -19.029957 -1.623600 -0.000001 -26.596300 9.587436 -0.541929 3.251419 8.266564 4.870188 -45.175875 1.550922 -1.980571 47.384072 -5.270272 -13.113504 -36.229292 6.817100 0.000000 -54.714300
8.769226 15.608671 0.866042 90.823202 -88.265165 -53.198410 -8.103744 0.360543 4.557316 -16.908702 -11.425749 -80.803018 -0.510155 4.435944 63.016648 2.964604 9.206285 -18.246121 -1.361500 0.000000 -28.895400 9.628673 -0.609282 3.072801 8.452155 4.063286 -43.189837 1.701484 -1.706176 44.853469 -5.137905 -12.698940 -35.384684 6.469400 0.000000 -55.730200
8.579583 15.671181 0.870688 82.444099 -88.189542 -44.851450 -7.972389 0.651417 4.965582 -16.865106 -12.031646 -80.405402 -0.895729 4.172805 59.148408 2.905066 8.745174 -17.415926 -1.117100 -0.000000 -30.933900 9.659655 -0.673086 2.884392 8.593748 3.213414 -41.224504 1.839173 -1.425808 42.316787 -4.978301 -12.238133 -34.405204 6.078600 -0.000000 -56.890600
8.387516 15.731456 0.876022 74.783520 -88.033432 -37.199874 -7.857457 0.944494 5.402123 -16.856664 -12.669852 -79.971266 -1.295775 3.882034 55.134065 2.872667 8.413553 -16.631226 -0.897200 -0.000000 -32.648000 9.677745 -0.742757 2.690650 8.698981 2.331222 -39.296626 1.964218 -1.146517 39.791003 -4.791261 -11.741771 -33.272279 5.646800 -0.000000 -58.202000
8.193024 15.789460 0.881926 68.201541 -87.798289 -30.609632 -7.754477 1.230365 5.862466 -16.891546 -13.329078 -79.472707 -1.718867 3.553423 50.985345 2.857581 8.144671 -15.966201 -0.707900 -0.000000 -34.023000 9.689841 -0.822229 2.491716 8.766932 1.410269 -37.415208 2.077916 -0.876784 37.299489 -4.575157 -11.213321 -31.974360 5.175799 0.000000 -59.666700
7.995929 15.844905 0.888775 62.686908 -87.512320 -25.071417 -7.659609 1.498613 6.341614 -16.949844 -13.982456 -78.899413 -2.169171 3.176482 46.720940 2.845598 7.862512 -15.469756 -0.554300 0.000001 -35.074600 9.700941 -0.914676 2.292040 8.814108 0.471530 -35.588924 2.180392 -0.622592 34.864971 -4.333151 -10.670196 -30.505167 4.674500 -0.000000 -61.278800
7.796167 15.897514 0.896864 58.093042 -87.210481 -20.444923 -7.569747 1.739937 6.833497 -17.002025 -14.598764 -78.241796 -2.644944 2.741036 42.360917 2.821055 7.501612 -15.151346 -0.438801 -0.000000 -35.841900 9.715693 -1.020758 2.096902 8.855139 -0.459003 -33.825249 2.270564 -0.388814 32.516683 -4.070291 -10.131086 -28.866551 4.153800 -0.000000 -63.024300
7.594385 15.947323 0.905601 54.549477 -86.908156 -16.897496 -7.474767 1.945720 7.317510 -17.047715 -15.152751 -77.430545 -3.138197 2.236706 37.920121 2.771125 7.029274 -14.985678 -0.360301 0.000000 -36.355900 9.748007 -1.132641 1.890364 8.871858 -1.427298 -32.097269 2.351714 -0.182616 30.285324 -3.782455 -9.568731 -27.077234 3.616200 0.000000 -64.908599
7.390041 15.993445 0.916105 51.474746 -86.673661 -13.839065 -7.386718 2.102469 7.788130 -17.001623 -15.594353 -76.521854 -3.623282 1.667628 33.472896 2.683654 6.426590 -14.904490 -0.307500 0.000000 -36.707000 9.786519 -1.257012 1.693944 8.907019 -2.342371 -30.423139 2.419167 -0.003319 28.197614 -3.486034 -9.033269 -25.151702 3.083400 0.000000 -66.897600
7.183466 16.035500 0.928252 48.759833 -86.536219 -11.185242 -7.309519 2.202110 8.225557 -16.829511 -15.895325 -75.509025 -4.069117 1.046337 29.099540 2.555343 5.723013 -14.821648 -0.266600 0.000000 -36.974701 9.832084 -1.391849 1.505882 8.958577 -3.204620 -28.787621 2.474019 0.146308 26.278481 -3.184931 -8.518474 -23.120371 2.563900 0.000000 -68.981501
6.974750 16.072886 0.942092 46.192076 -86.525133 -8.733371 -7.254129 2.242046 8.616665 -16.489821 -16.036895 -74.429575 -4.440166 0.402045 24.916101 2.390803 4.976642 -14.644837 -0.222200 -0.000000 -37.257399 9.879035 -1.538699 1.334820 9.031858 -3.986386 -27.191836 2.515806 0.265929 24.548325 -2.887117 -8.032705 -21.015865 2.068300 -0.000000 -71.137700
6.764644 16.105263 0.957215 43.671295 -86.645271 -6.409766 -7.228719 2.225914 8.938246 -15.985532 -16.010063 -73.290876 -4.708083 -0.222579 21.060270 2.200583 4.257323 -14.305178 -0.165200 -0.000001 -37.630400 9.925134 -1.695552 1.174101 9.114481 -4.707333 -25.606782 2.546843 0.355104 23.010859 -2.594128 -7.558999 -18.872163 1.602300 -0.000000 -73.373800
6.552671 16.131721 0.973710 40.908426 -86.903240 -3.901067 -7.249531 2.167462 9.197633 -15.300510 -15.834492 -72.190316 -4.856431 -0.778740 17.680600 2.001615 3.639548 -13.751978 -0.088500 -0.000000 -38.178200 9.957810 -1.867083 1.042825 9.213620 -5.319612 -24.067342 2.566194 0.416505 21.676552 -2.315939 -7.116460 -16.723189 1.174500 0.000000 -75.651100
6.339346 16.152055 0.990938 37.797590 -87.273699 -1.102383 -7.322616 2.082681 9.392144 -14.478843 -15.539426 -71.164658 -4.887962 -1.223620 14.904536 1.809917 3.180340 -12.968614 0.009100 0.000000 -38.938900 9.972456 -2.051945 0.938550 9.309841 -5.841194 -22.572502 2.575787 0.451085 20.541524 -2.053436 -6.691599 -14.598744 0.787400 0.000000 -77.959400
6.124975 16.166006 1.008305 34.174935 -87.720348 2.163884 -7.451568 1.987060 9.528222 -13.577853 -15.164015 -70.261758 -4.819534 -1.527349 12.832559 1.637909 2.909773 -11.960441 0.128400 0.000000 -39.921400 9.963512 -2.250446 0.861935 9.387078 -6.284632 -21.137956 2.577463 0.460063 19.600832 -1.807969 -6.276028 -12.523832 0.443001 0.000000 -80.276800
5.909927 16.173575 1.025221 29.884057 -88.193471 6.068003 -7.634207 1.890811 9.613727 -12.672201 -14.750083 -69.517356 -4.676480 -1.676681 11.528316 1.491754 2.826515 -10.747619 0.270800 0.000000 -41.088500 9.928877 -2.463883 0.811695 9.427473 -6.675872 -19.784051 2.573740 0.443581 18.849248 -1.579514 -5.858294 -10.517611 0.142600 -0.000000 -82.566300
5.694975 16.175039 1.041121 24.598761 -88.636342 10.943205 -7.866234 1.791819 9.643263 -11.854439 -14.312624 -68.947343 -4.487564 -1.670353 11.032215 1.366429 2.878161 -9.366913 0.434400 -0.000001 -42.366700 9.867148 -2.697386 0.784420 9.422908 -7.034192 -18.514270 2.566697 0.400484 18.273650 -1.369879 -5.440930 -8.588204 -0.113800 0.000000 -84.808600
5.480550 16.170894 1.055547 18.117082 -88.977251 17.000842 -8.129180 1.682459 9.618757 -11.204247 -13.878959 -68.559154 -4.278330 -1.523856 11.334681 1.254368 3.003040 -7.861873 0.613900 0.000000 -43.584199 9.792188 -2.958887 0.779722 9.368005 -7.400294 -17.353189 2.560089 0.327194 17.870957 -1.179749 -5.019527 -6.742111 -0.325900 -0.000001 -86.926500
